<?xml version="1.0" encoding="UTF-8"?>
<svg width="12px" height="7px" viewBox="0 0 12 7" version="1.1" xmlns="http://www.w3.org/2000/svg" xmlns:xlink="http://www.w3.org/1999/xlink">
    <!-- Generator: sketchtool 61.2 (101010) - https://sketch.com -->
    <title>651DA9C2-F0B8-49F3-8D46-D2F2B7274DC8</title>
    <desc>Created with sketchtool.</desc>
    <g id="Hotels" stroke="none" stroke-width="1" fill="none" fill-rule="evenodd">
        <g id="Hotels---Search-Results" transform="translate(-346.000000, -354.000000)" fill="#11344C" fill-rule="nonzero">
            <g id="Group-24" transform="translate(0.000000, 301.000000)">
                <g id="Field-Copy-2" transform="translate(99.000000, 31.000000)">
                    <g id="ico-/-24-/-ui-/-edit-copy" transform="translate(243.000000, 15.000000)">
                        <path d="M10.72,13.6906583 C10.5794826,13.8313508 10.3888454,13.9104832 10.19,13.9106583 L9.81,13.9106583 C9.61158587,13.9083543 9.42172056,13.8295422 9.28,13.6906583 L4.15,8.55065826 C4.05534367,8.45677496 4.00210084,8.32897703 4.00210084,8.19565826 C4.00210084,8.0623395 4.05534367,7.93454156 4.15,7.84065826 L4.86,7.13065826 C4.95216359,7.0365942 5.07831031,6.98358683 5.21,6.98358683 C5.34168969,6.98358683 5.46783641,7.0365942 5.56,7.13065826 L10,11.5806583 L14.44,7.13065826 C14.5338833,7.03600194 14.6616812,6.9827591 14.795,6.9827591 C14.9283188,6.9827591 15.0561167,7.03600194 15.15,7.13065826 L15.85,7.84065826 C15.9446563,7.93454156 15.9978992,8.0623395 15.9978992,8.19565826 C15.9978992,8.32897703 15.9446563,8.45677496 15.85,8.55065826 L10.72,13.6906583 Z" id="Icon-color"></path>
                    </g>
                </g>
            </g>
        </g>
    </g>
</svg>