<?xml version="1.0" encoding="UTF-8"?>
<svg width="20px" height="13px" viewBox="0 0 20 13" version="1.1" xmlns="http://www.w3.org/2000/svg" xmlns:xlink="http://www.w3.org/1999/xlink">
    <!-- Generator: sketchtool 61.2 (101010) - https://sketch.com -->
    <title>8BBD78A2-8BD9-4E3D-B326-B686FB92812B</title>
    <desc>Created with sketchtool.</desc>
    <defs>
        <path d="M5.83333333,6.83333333 C7.21666667,6.83333333 8.33333333,5.71666667 8.33333333,4.33333333 C8.33333333,2.95 7.21666667,1.83333333 5.83333333,1.83333333 C4.45,1.83333333 3.33333333,2.95 3.33333333,4.33333333 C3.33333333,5.71666667 4.45,6.83333333 5.83333333,6.83333333 L5.83333333,6.83333333 Z M15.8333333,1.83333333 L9.16666667,1.83333333 L9.16666667,7.66666667 L2.5,7.66666667 L2.5,0.166666667 L0.833333333,0.166666667 L0.833333333,12.6666667 L2.5,12.6666667 L2.5,10.1666667 L17.5,10.1666667 L17.5,12.6666667 L19.1666667,12.6666667 L19.1666667,5.16666667 C19.1666667,3.325 17.675,1.83333333 15.8333333,1.83333333 L15.8333333,1.83333333 Z" id="path-1"></path>
        <rect id="path-3" x="0" y="0" width="41.6666667" height="41.6666667"></rect>
    </defs>
    <g id="Hotels" stroke="none" stroke-width="1" fill="none" fill-rule="evenodd">
        <g id="Hotels---Search-Results" transform="translate(-866.000000, -698.000000)">
            <g id="Group-19" transform="translate(0.000000, 482.000000)">
                <g id="Group-24-Copy-2" transform="translate(490.000000, 68.000000)">
                    <g id="Group-15">
                        <g id="Group-20-Copy-5" transform="translate(376.000000, 144.000000)">
                            <g id="ico-/-24-/-ui-/-edit" transform="translate(0.000000, 4.000000)">
                                <mask id="mask-2" fill="white">
                                    <use xlink:href="#path-1"></use>
                                </mask>
                                <use id="Mask" fill-opacity="0.7" fill="#000000" xlink:href="#path-1"></use>
                                <g id="🎨-Color" mask="url(#mask-2)">
                                    <g transform="translate(-10.833333, -14.833333)">
                                        <mask id="mask-4" fill="white">
                                            <use xlink:href="#path-3"></use>
                                        </mask>
                                        <use id="Black" stroke="none" fill="#364BA0" fill-rule="evenodd" xlink:href="#path-3"></use>
                                    </g>
                                </g>
                            </g>
                        </g>
                    </g>
                </g>
            </g>
        </g>
    </g>
</svg>