<?xml version="1.0" encoding="UTF-8"?>
<svg width="16px" height="17px" viewBox="0 0 16 17" version="1.1" xmlns="http://www.w3.org/2000/svg" xmlns:xlink="http://www.w3.org/1999/xlink">
    <!-- Generator: sketchtool 61.2 (101010) - https://sketch.com -->
    <title>01B980B6-0012-4184-9772-68CBDEC77760</title>
    <desc>Created with sketchtool.</desc>
    <g id="Hotels" stroke="none" stroke-width="1" fill="none" fill-rule="evenodd">
        <g id="Hotels---Search-Results" transform="translate(-687.000000, -348.000000)" fill="#11344C" fill-rule="nonzero">
            <g id="Group-24" transform="translate(0.000000, 301.000000)">
                <g id="Field-Copy-4" transform="translate(684.000000, 31.000000)">
                    <g id="ico-/-24-/-ui-/-edit" transform="translate(3.000000, 16.000000)">
                        <path d="M13.8333333,2.33333333 L13,2.33333333 L13,1.08333333 C13,0.853214688 12.813452,0.666666667 12.5833333,0.666666667 L11.75,0.666666667 C11.5198814,0.666666667 11.3333333,0.853214688 11.3333333,1.08333333 L11.3333333,2.33333333 L4.66666667,2.33333333 L4.66666667,1.08333333 C4.66666667,0.853214688 4.48011865,0.666666667 4.25,0.666666667 L3.41666667,0.666666667 C3.18654802,0.666666667 3,0.853214688 3,1.08333333 L3,2.33333333 L2.16666667,2.33333333 C1.24619208,2.33333333 0.5,3.07952542 0.5,4 L0.5,14.8333333 C0.5,15.7538079 1.24619208,16.5 2.16666667,16.5 L13.8333333,16.5 C14.7538079,16.5 15.5,15.7538079 15.5,14.8333333 L15.5,4 C15.5,3.07952542 14.7538079,2.33333333 13.8333333,2.33333333 Z M13.8333333,14.8333333 L2.16666667,14.8333333 L2.16666667,5.66666667 L13.8333333,5.66666667 L13.8333333,14.8333333 Z M6.825,12.2083333 C6.90061111,12.2888977 7.00617841,12.3345989 7.11666667,12.3345989 C7.22715492,12.3345989 7.33272222,12.2888977 7.40833333,12.2083333 L10.95,8.675 C11.1098194,8.51015527 11.1098194,8.24817806 10.95,8.08333333 L10.5,7.64166667 C10.3351553,7.48184726 10.0731781,7.48184726 9.90833333,7.64166667 L7.10833333,10.4416667 L6.08333333,9.40833333 C5.9184886,9.24851392 5.6565114,9.24851392 5.49166667,9.40833333 L5.05,9.83333333 C4.89119047,9.99535146 4.89119047,10.2546485 5.05,10.4166667 L6.825,12.2083333 Z" id="Icon-color"></path>
                    </g>
                </g>
            </g>
        </g>
    </g>
</svg>