<?xml version="1.0" encoding="UTF-8"?>
<svg width="18px" height="18px" viewBox="0 0 18 18" version="1.1" xmlns="http://www.w3.org/2000/svg" xmlns:xlink="http://www.w3.org/1999/xlink">
    <!-- Generator: sketchtool 61.2 (101010) - https://sketch.com -->
    <title>DEE2D70F-F534-4677-9B9A-28214676D4D5</title>
    <desc>Created with sketchtool.</desc>
    <g id="Hotels" stroke="none" stroke-width="1" fill="none" fill-rule="evenodd">
        <g id="Hotels---Search-Results" transform="translate(-618.000000, -508.000000)" fill="#4CB4A0">
            <g id="Group-19" transform="translate(0.000000, 482.000000)">
                <g id="Group-30" transform="translate(490.000000, 20.000000)">
                    <g id="Group-22" transform="translate(117.000000, 0.000000)">
                        <g id="ico-/-24-/-ui-/-edit" transform="translate(11.000000, 6.000000)">
                            <path d="M9,0.666666667 C4.39762708,0.666666667 0.666666667,4.39762708 0.666666667,9 C0.666666667,13.6023729 4.39762708,17.3333333 9,17.3333333 C13.6023729,17.3333333 17.3333333,13.6023729 17.3333333,9 C17.3333333,6.78986258 16.4553597,4.67024664 14.8925565,3.10744349 C13.3297534,1.54464034 11.2101374,0.666666667 9,0.666666667 Z M9,15.6666667 C5.31810167,15.6666667 2.33333333,12.6818983 2.33333333,9 C2.33333333,5.31810167 5.31810167,2.33333333 9,2.33333333 C12.6818983,2.33333333 15.6666667,5.31810167 15.6666667,9 C15.6666667,10.7681099 14.9642877,12.4638027 13.7140452,13.7140452 C12.4638027,14.9642877 10.7681099,15.6666667 9,15.6666667 Z M8.55833333,4 C6.13718833,4.20518754 4.2140548,6.1212895 4,8.54166667 C3.99360361,8.6598164 4.03232638,8.77598471 4.10833333,8.86666667 C4.18900251,8.95076126 4.30014187,8.99882152 4.41666667,9 L5.25,9 C5.46337439,9.00546298 5.64495656,8.84567067 5.66666667,8.63333333 C5.83117208,7.06807894 7.06807894,5.83117208 8.63333333,5.66666667 C8.83621055,5.64598736 8.99272759,5.4787987 9,5.275 L9,4.44166667 C9.00739812,4.32241487 8.96324653,4.2057252 8.87876066,4.12123934 C8.7942748,4.03675347 8.67758513,3.99260188 8.55833333,4 L8.55833333,4 Z" id="Icon-color"></path>
                        </g>
                    </g>
                </g>
            </g>
        </g>
    </g>
</svg>