<?xml version="1.0" encoding="UTF-8"?>
<svg width="31px" height="20px" viewBox="0 0 31 20" version="1.1" xmlns="http://www.w3.org/2000/svg" xmlns:xlink="http://www.w3.org/1999/xlink">
    <!-- Generator: sketchtool 61.2 (101010) - https://sketch.com -->
    <title>D0EEE31C-3F48-4D7E-A250-8B2AA4E98439</title>
    <desc>Created with sketchtool.</desc>
    <g id="Hotels" stroke="none" stroke-width="1" fill="none" fill-rule="evenodd">
        <g id="Hotels---Search-Results" transform="translate(-1256.000000, -20.000000)" fill-rule="nonzero">
            <g id="Group-5">
                <g id="Group-4" transform="translate(1256.000000, 20.000000)">
                    <g id="country">
                        <path d="M27.850914,0.0162288 L2.254686,0.0162288 C1.0094196,0.0162288 0,1.0256484 0,2.2709148 L0,17.485944 C0,18.7311516 1.0094196,19.74063 2.254686,19.74063 L27.850914,19.74063 C29.0961216,19.74063 30.1056,18.7312104 30.1056,17.485944 L30.1056,2.2709148 C30.1056,1.0256484 29.0961804,0.0162288 27.850914,0.0162288 Z" id="Path" fill="#F5F5F5"></path>
                        <g id="Group" fill="#FF4B55">
                            <path d="M0.1240092,1.533504 L29.981532,1.533504 C29.6760072,0.6505044 28.8377544,0.0162288 27.850914,0.0162288 L2.254686,0.0162288 C1.2677868,0.0162288 0.4295928,0.6505044 0.1240092,1.533504 Z" id="Path"></path>
                            <rect id="Rectangle" x="0" y="6.085212" width="30.1056" height="1.5172164"></rect>
                            <rect id="Rectangle" x="0" y="3.050544" width="30.1056" height="1.5172164"></rect>
                            <path d="M0,10.1179512 C0,10.4046012 0.2324364,10.6370376 0.5190864,10.6370376 L30.1056,10.6370376 L30.1056,9.1197624 L0,9.1197624 L0,10.1179512 Z" id="Path"></path>
                            <rect id="Rectangle" x="0" y="15.189216" width="30.1056" height="1.5172752"></rect>
                            <path d="M29.9815908,18.223296 L0.1240092,18.223296 C0.4295928,19.1062956 1.2678456,19.7405712 2.254686,19.7405712 L27.850914,19.7405712 C28.8378132,19.7405712 29.6760072,19.1062956 29.9815908,18.223296 Z" id="Path"></path>
                            <rect id="Rectangle" x="0" y="12.154548" width="30.1056" height="1.5172164"></rect>
                        </g>
                        <path d="M0.5190864,10.6370376 L13.4956584,10.6370376 C13.7823084,10.6370376 14.0147448,10.4046012 14.0147448,10.1179512 L14.0147448,0.5352564 C14.0147448,0.2485476 13.7823084,0.01617 13.4956584,0.01617 L2.254686,0.01617 C1.0094196,0.01617 0,1.0256484 0,2.2709148 L0,10.1179512 C0,10.40466 0.2324364,10.6370376 0.5190864,10.6370376 Z" id="Path" fill="#41479B"></path>
                        <g id="Group" transform="translate(0.823200, 1.117200)" fill="#F5F5F5">
                            <path d="M0.6343932,0.0903756 L0.7492884,0.4349436 L1.112496,0.4377072 C1.159536,0.4381188 1.1789988,0.4980948 1.1411904,0.5260248 L0.8490132,0.741762 L0.9586164,1.0880352 C0.972846,1.1328408 0.9217488,1.1700024 0.88347,1.1426016 L0.588,0.9314508 L0.29253,1.1426604 C0.2542512,1.1700612 0.2032716,1.1328996 0.2173836,1.088094 L0.3269868,0.7418208 L0.0348096,0.5260836 C-0.0029988,0.4980948 0.016464,0.4381188 0.063504,0.437766 L0.4267116,0.4350024 L0.5416068,0.0904344 C0.5564244,0.0457464 0.619458,0.0457464 0.6343932,0.0903756 Z" id="Path"></path>
                            <path d="M0.6343932,1.8928308 L0.7492884,2.2373988 L1.112496,2.2401624 C1.159536,2.240574 1.1789988,2.3004912 1.1411904,2.32848 L0.8490132,2.544276 L0.9586164,2.8905492 C0.972846,2.9353548 0.9217488,2.9725164 0.88347,2.9451156 L0.588,2.7339648 L0.29253,2.9451744 C0.2542512,2.9725164 0.2032716,2.9354136 0.2173836,2.890608 L0.3269868,2.5443348 L0.0348096,2.3285388 C-0.0029988,2.30055 0.016464,2.2406328 0.063504,2.2402212 L0.4267116,2.2374576 L0.5416068,1.8928896 C0.5564244,1.8482604 0.619458,1.8482604 0.6343932,1.8928308 Z" id="Path"></path>
                            <path d="M0.6343932,3.6953448 L0.7492884,4.0399128 L1.112496,4.0426764 C1.159536,4.043088 1.1789988,4.1030052 1.1411904,4.130994 L0.8490132,4.34679 L0.9586164,4.6930632 C0.972846,4.7378688 0.9217488,4.7750304 0.88347,4.7476296 L0.588,4.5364788 L0.29253,4.7476884 C0.2542512,4.7750304 0.2032716,4.7379864 0.2173836,4.693122 L0.3269868,4.3468488 L0.0348096,4.1310528 C-0.0029988,4.103064 0.016464,4.0431468 0.063504,4.0427352 L0.4267116,4.0399716 L0.5416068,3.6954036 C0.5564244,3.6507156 0.619458,3.6507156 0.6343932,3.6953448 Z" id="Path"></path>
                            <path d="M0.6343932,5.4978 L0.7492884,5.842368 L1.112496,5.8451316 C1.159536,5.8455432 1.1789988,5.9055192 1.1411904,5.9334492 L0.8490132,6.1492452 L0.9586164,6.4955184 C0.972846,6.540324 0.9217488,6.5774856 0.88347,6.5500848 L0.588,6.338934 L0.29253,6.5501436 C0.2542512,6.5774856 0.2032716,6.5403828 0.2173836,6.4955772 L0.3269868,6.149304 L0.0348096,5.933508 C-0.0029988,5.9056368 0.016464,5.845602 0.063504,5.8451904 L0.4267116,5.8424268 L0.5416068,5.4978588 C0.5564244,5.4531708 0.619458,5.4531708 0.6343932,5.4978 Z" id="Path"></path>
                            <path d="M0.6343932,7.3002552 L0.7492884,7.6448232 L1.112496,7.6475868 C1.159536,7.6479984 1.1789988,7.7079156 1.1411904,7.7359044 L0.8490132,7.9517004 L0.9586164,8.2979736 C0.972846,8.3427792 0.9217488,8.3799408 0.88347,8.35254 L0.588,8.1413892 L0.29253,8.3525988 C0.2542512,8.3799408 0.2032716,8.342838 0.2173836,8.2980324 L0.3269868,7.9517592 L0.0348096,7.7359632 C-0.0029988,7.7079744 0.016464,7.6480572 0.063504,7.6476456 L0.4267116,7.644882 L0.5416068,7.300314 C0.5564244,7.2556848 0.619458,7.2556848 0.6343932,7.3002552 Z" id="Path"></path>
                            <path d="M2.0334216,0.9740808 L2.1483168,1.3186488 L2.5115244,1.3214124 C2.5585644,1.321824 2.5780272,1.3818 2.5402188,1.40973 L2.2480416,1.625526 L2.3576448,1.9717992 C2.3718744,2.0166048 2.3207772,2.0537664 2.2824984,2.0263656 L1.9870284,1.815156 L1.6915584,2.0263656 C1.6532796,2.0537076 1.6023,2.0166048 1.616412,1.9717992 L1.7260152,1.625526 L1.433838,1.40973 C1.3960296,1.3817412 1.4154924,1.321824 1.4625324,1.3214124 L1.82574,1.3186488 L1.9406352,0.9740808 C1.9554528,0.9295104 2.0185452,0.9295104 2.0334216,0.9740808 Z" id="Path"></path>
                            <path d="M2.0334216,2.7765948 L2.1483168,3.1211628 L2.5115244,3.1239264 C2.5585644,3.124338 2.5780272,3.184314 2.5402188,3.212244 L2.2480416,3.42804 L2.3576448,3.7743132 C2.3718744,3.8191188 2.3207772,3.8562804 2.2824984,3.8288796 L1.9870284,3.61767 L1.6915584,3.8288796 C1.6532796,3.8562216 1.6023,3.8191776 1.616412,3.7743132 L1.7260152,3.42804 L1.433838,3.212244 C1.3960296,3.1843728 1.4154924,3.124338 1.4625324,3.1239264 L1.82574,3.1211628 L1.9406352,2.7765948 C1.9554528,2.7319656 2.0185452,2.7319656 2.0334216,2.7765948 Z" id="Path"></path>
                            <path d="M2.0334216,4.57905 L2.1483168,4.923618 L2.5115244,4.9263816 C2.5585644,4.9267932 2.5780272,4.9867104 2.5402188,5.0146992 L2.2480416,5.2304952 L2.3576448,5.5767684 C2.3718744,5.621574 2.3207772,5.6587356 2.2824984,5.6313348 L1.9870284,5.4201252 L1.6915584,5.6313348 C1.6532796,5.6586768 1.6023,5.621574 1.616412,5.5767684 L1.7260152,5.2304952 L1.433838,5.0146992 C1.3960296,4.9867104 1.4154924,4.9267932 1.4625324,4.9263816 L1.82574,4.923618 L1.9406352,4.57905 C1.9554528,4.5344208 2.0185452,4.5344208 2.0334216,4.57905 Z" id="Path"></path>
                            <path d="M2.0334216,6.3815052 L2.1483168,6.7260732 L2.5115244,6.7288368 C2.5585644,6.7292484 2.5780272,6.7891656 2.5402188,6.8171544 L2.2480416,7.0329504 L2.3576448,7.3792236 C2.3718744,7.4240292 2.3207772,7.4611908 2.2824984,7.43379 L1.9870284,7.2225804 L1.6915584,7.43379 C1.6532796,7.4611908 1.6023,7.4240292 1.616412,7.3792236 L1.7260152,7.0329504 L1.433838,6.8171544 C1.3960296,6.7891656 1.4154924,6.7292484 1.4625324,6.7288368 L1.82574,6.7260732 L1.9406352,6.3815052 C1.9554528,6.3369348 2.0185452,6.3369348 2.0334216,6.3815052 Z" id="Path"></path>
                            <path d="M3.43245,0.0903756 L3.5473452,0.4349436 L3.9105528,0.4377072 C3.9575928,0.4381188 3.9770556,0.4980948 3.9392472,0.5260248 L3.64707,0.741762 L3.7566732,1.0880352 C3.7709028,1.1328408 3.7198056,1.1700024 3.6815268,1.1426016 L3.3860568,0.931392 L3.0905868,1.1426016 C3.052308,1.1700024 3.0013284,1.1328408 3.0154404,1.0880352 L3.1250436,0.741762 L2.8328664,0.5260248 C2.795058,0.498036 2.8145208,0.43806 2.8615608,0.4377072 L3.2247684,0.4349436 L3.3396636,0.0903756 C3.3544812,0.0457464 3.4175736,0.0457464 3.43245,0.0903756 Z" id="Path"></path>
                            <path d="M3.43245,1.8928308 L3.5473452,2.2373988 L3.9105528,2.2401624 C3.9575928,2.240574 3.9770556,2.3004912 3.9392472,2.32848 L3.64707,2.544276 L3.7566732,2.8905492 C3.7709028,2.9353548 3.7198056,2.9725164 3.6815268,2.9451156 L3.3860568,2.733906 L3.0905868,2.9451156 C3.052308,2.9724576 3.0013284,2.9353548 3.0154404,2.8905492 L3.1250436,2.544276 L2.8328664,2.32848 C2.795058,2.3004912 2.8145208,2.240574 2.8615608,2.2401624 L3.2247684,2.2373988 L3.3396636,1.8928308 C3.3544812,1.8482604 3.4175736,1.8482604 3.43245,1.8928308 Z" id="Path"></path>
                            <path d="M3.43245,3.6953448 L3.5473452,4.0399128 L3.9105528,4.0426764 C3.9575928,4.043088 3.9770556,4.1030052 3.9392472,4.130994 L3.64707,4.34679 L3.7566732,4.6930632 C3.7709028,4.7378688 3.7198056,4.7750304 3.6815268,4.7476296 L3.3860568,4.53642 L3.0905868,4.7476296 C3.052308,4.7749716 3.0013284,4.7379276 3.0154404,4.6930632 L3.1250436,4.34679 L2.8328664,4.130994 C2.795058,4.1030052 2.8145208,4.043088 2.8615608,4.0426764 L3.2247684,4.0399128 L3.3396636,3.6953448 C3.3544812,3.6507156 3.4175736,3.6507156 3.43245,3.6953448 Z" id="Path"></path>
                            <path d="M3.43245,5.4978 L3.5473452,5.842368 L3.9105528,5.8451316 C3.9575928,5.8455432 3.9770556,5.9055192 3.9392472,5.9334492 L3.64707,6.1492452 L3.7566732,6.4955184 C3.7709028,6.540324 3.7198056,6.5774856 3.6815268,6.5500848 L3.3860568,6.3388752 L3.0905868,6.5500848 C3.052308,6.5774268 3.0013284,6.540324 3.0154404,6.4955184 L3.1250436,6.1492452 L2.8328664,5.9334492 C2.795058,5.905578 2.8145208,5.8455432 2.8615608,5.8451316 L3.2247684,5.842368 L3.3396636,5.4978 C3.3544812,5.4531708 3.4175736,5.4531708 3.43245,5.4978 Z" id="Path"></path>
                            <path d="M3.43245,7.3002552 L3.5473452,7.6448232 L3.9105528,7.6475868 C3.9575928,7.6479984 3.9770556,7.7079156 3.9392472,7.7359044 L3.64707,7.9517004 L3.7566732,8.2979736 C3.7709028,8.3427792 3.7198056,8.3799408 3.6815268,8.35254 L3.3860568,8.1413304 L3.0905868,8.35254 C3.052308,8.379882 3.0013284,8.3427792 3.0154404,8.2979736 L3.1250436,7.9517004 L2.8328664,7.7359044 C2.795058,7.7079156 2.8145208,7.6479984 2.8615608,7.6475868 L3.2247684,7.6448232 L3.3396636,7.3002552 C3.3544812,7.2556848 3.4175736,7.2556848 3.43245,7.3002552 Z" id="Path"></path>
                            <path d="M4.8315372,0.9740808 L4.9464324,1.3186488 L5.30964,1.3214124 C5.35668,1.321824 5.3761428,1.3818 5.3383344,1.40973 L5.0461572,1.625526 L5.1557604,1.9717992 C5.16999,2.0166048 5.1188928,2.0537664 5.080614,2.0263656 L4.785144,1.815156 L4.489674,2.0263656 C4.4513952,2.0537076 4.4004156,2.0166048 4.4145276,1.9717992 L4.5241308,1.625526 L4.2319536,1.40973 C4.1941452,1.3817412 4.213608,1.321824 4.260648,1.3214124 L4.6238556,1.3186488 L4.7387508,0.9740808 C4.7535096,0.9295104 4.8166608,0.9295104 4.8315372,0.9740808 Z" id="Path"></path>
                            <path d="M4.8315372,2.7765948 L4.9464324,3.1211628 L5.30964,3.1239264 C5.35668,3.124338 5.3761428,3.184314 5.3383344,3.212244 L5.0461572,3.42804 L5.1557604,3.7743132 C5.16999,3.8191188 5.1188928,3.8562804 5.080614,3.8288796 L4.785144,3.61767 L4.489674,3.8288796 C4.4513952,3.8562216 4.4004156,3.8191776 4.4145276,3.7743132 L4.5241308,3.42804 L4.2319536,3.212244 C4.1941452,3.1843728 4.213608,3.124338 4.260648,3.1239264 L4.6238556,3.1211628 L4.7387508,2.7765948 C4.7535096,2.7319656 4.8166608,2.7319656 4.8315372,2.7765948 Z" id="Path"></path>
                            <path d="M4.8315372,4.57905 L4.9464324,4.923618 L5.30964,4.9263816 C5.35668,4.9267932 5.3761428,4.9867104 5.3383344,5.0146992 L5.0461572,5.2304952 L5.1557604,5.5767684 C5.16999,5.621574 5.1188928,5.6587356 5.080614,5.6313348 L4.785144,5.4201252 L4.489674,5.6313348 C4.4513952,5.6586768 4.4004156,5.621574 4.4145276,5.5767684 L4.5241308,5.2304952 L4.2319536,5.0146992 C4.1941452,4.9867104 4.213608,4.9267932 4.260648,4.9263816 L4.6238556,4.923618 L4.7387508,4.57905 C4.7535096,4.5344208 4.8166608,4.5344208 4.8315372,4.57905 Z" id="Path"></path>
                            <path d="M4.8315372,6.3815052 L4.9464324,6.7260732 L5.30964,6.7288368 C5.35668,6.7292484 5.3761428,6.7891656 5.3383344,6.8171544 L5.0461572,7.0329504 L5.1557604,7.3792236 C5.16999,7.4240292 5.1188928,7.4611908 5.080614,7.43379 L4.785144,7.2225804 L4.489674,7.43379 C4.4513952,7.4611908 4.4004156,7.4240292 4.4145276,7.3792236 L4.5241308,7.0329504 L4.2319536,6.8171544 C4.1941452,6.7891656 4.213608,6.7292484 4.260648,6.7288368 L4.6238556,6.7260732 L4.7387508,6.3815052 C4.7535096,6.3369348 4.8166608,6.3369348 4.8315372,6.3815052 Z" id="Path"></path>
                            <path d="M6.2305656,0.0903756 L6.3454608,0.4349436 L6.7086684,0.4377072 C6.7557084,0.4381188 6.7751712,0.4980948 6.7373628,0.5260248 L6.4451856,0.741762 L6.5547888,1.0880352 C6.5690184,1.1328408 6.5179212,1.1700024 6.4796424,1.1426016 L6.1841136,0.9314508 L5.8886436,1.1426604 C5.8503648,1.1700612 5.7993852,1.1328996 5.8134972,1.088094 L5.9231004,0.7418208 L5.6309232,0.5260836 C5.5931148,0.4980948 5.6125776,0.4381188 5.6596176,0.437766 L6.0228252,0.4350024 L6.1377204,0.0904344 C6.1525968,0.0457464 6.2156892,0.0457464 6.2305656,0.0903756 Z" id="Path"></path>
                            <path d="M6.2305656,1.8928308 L6.3454608,2.2373988 L6.7086684,2.2401624 C6.7557084,2.240574 6.7751712,2.3004912 6.7373628,2.32848 L6.4451856,2.544276 L6.5547888,2.8905492 C6.5690184,2.9353548 6.5179212,2.9725164 6.4796424,2.9451156 L6.1841136,2.733906 L5.8886436,2.9451156 C5.8503648,2.9724576 5.7993852,2.9353548 5.8134972,2.8905492 L5.9231004,2.544276 L5.6309232,2.32848 C5.5931148,2.3004912 5.6125776,2.240574 5.6596176,2.2401624 L6.0228252,2.2373988 L6.1377204,1.8928308 C6.1525968,1.8482604 6.2156892,1.8482604 6.2305656,1.8928308 Z" id="Path"></path>
                            <path d="M6.2305656,3.6953448 L6.3454608,4.0399128 L6.7086684,4.0426764 C6.7557084,4.043088 6.7751712,4.1030052 6.7373628,4.130994 L6.4451856,4.34679 L6.5547888,4.6930632 C6.5690184,4.7378688 6.5179212,4.7750304 6.4796424,4.7476296 L6.1841136,4.5363612 L5.8886436,4.7475708 C5.8503648,4.7749128 5.7993852,4.73781 5.8134972,4.6930044 L5.9231004,4.3467312 L5.6309232,4.1309352 C5.5931148,4.1029464 5.6125776,4.0430292 5.6596176,4.0426176 L6.0228252,4.039854 L6.1377204,3.695286 C6.1525968,3.6507156 6.2156892,3.6507156 6.2305656,3.6953448 Z" id="Path"></path>
                            <path d="M6.2305656,5.4978 L6.3454608,5.842368 L6.7086684,5.8451316 C6.7557084,5.8455432 6.7751712,5.9055192 6.7373628,5.9334492 L6.4451856,6.1492452 L6.5547888,6.4955184 C6.5690184,6.540324 6.5179212,6.5774856 6.4796424,6.5500848 L6.1841136,6.3388752 L5.8886436,6.5500848 C5.8503648,6.5774268 5.7993852,6.540324 5.8134972,6.4955184 L5.9231004,6.1492452 L5.6309232,5.9334492 C5.5931148,5.905578 5.6125776,5.8455432 5.6596176,5.8451316 L6.0228252,5.842368 L6.1377204,5.4978 C6.1525968,5.4531708 6.2156892,5.4531708 6.2305656,5.4978 Z" id="Path"></path>
                            <path d="M6.2305656,7.3002552 L6.3454608,7.6448232 L6.7086684,7.6475868 C6.7557084,7.6479984 6.7751712,7.7079156 6.7373628,7.7359044 L6.4451856,7.9517004 L6.5547888,8.2979736 C6.5690184,8.3427792 6.5179212,8.3799408 6.4796424,8.35254 L6.1841136,8.1413304 L5.8886436,8.35254 C5.8503648,8.379882 5.7993852,8.3427792 5.8134972,8.2979736 L5.9231004,7.9517004 L5.6309232,7.7359044 C5.5931148,7.7079156 5.6125776,7.6479984 5.6596176,7.6475868 L6.0228252,7.6448232 L6.1377204,7.3002552 C6.1525968,7.2556848 6.2156892,7.2556848 6.2305656,7.3002552 Z" id="Path"></path>
                            <path d="M7.629594,0.9740808 L7.7444892,1.3186488 L8.1076968,1.3214124 C8.1547368,1.321824 8.1741996,1.3818 8.1363912,1.40973 L7.844214,1.625526 L7.9538172,1.9717992 C7.9680468,2.0166048 7.9169496,2.0537664 7.8786708,2.0263656 L7.5832008,1.815156 L7.2877308,2.0263656 C7.249452,2.0537076 7.1984724,2.0166048 7.2125844,1.9717992 L7.3221876,1.625526 L7.0300104,1.40973 C6.992202,1.3817412 7.0116648,1.321824 7.0587048,1.3214124 L7.4219124,1.3186488 L7.5368076,0.9740808 C7.551684,0.9295104 7.6147176,0.9295104 7.629594,0.9740808 Z" id="Path"></path>
                            <path d="M7.629594,2.7765948 L7.7444892,3.1211628 L8.1076968,3.1239264 C8.1547368,3.124338 8.1741996,3.184314 8.1363912,3.212244 L7.844214,3.42804 L7.9538172,3.7743132 C7.9680468,3.8191188 7.9169496,3.8562804 7.8786708,3.8288796 L7.5832008,3.61767 L7.2877308,3.8288796 C7.249452,3.8562216 7.1984724,3.8191776 7.2125844,3.7743132 L7.3221876,3.42804 L7.0300104,3.212244 C6.992202,3.1843728 7.0116648,3.124338 7.0587048,3.1239264 L7.4219124,3.1211628 L7.5368076,2.7765948 C7.551684,2.7319656 7.6147176,2.7319656 7.629594,2.7765948 Z" id="Path"></path>
                            <path d="M7.629594,4.57905 L7.7444892,4.923618 L8.1076968,4.9263816 C8.1547368,4.9267932 8.1741996,4.9867104 8.1363912,5.0146992 L7.844214,5.2304952 L7.9538172,5.5767684 C7.9680468,5.621574 7.9169496,5.6587356 7.8786708,5.6313348 L7.5832008,5.4201252 L7.2877308,5.6313348 C7.249452,5.6586768 7.1984724,5.621574 7.2125844,5.5767684 L7.3221876,5.2304952 L7.0300104,5.0146992 C6.992202,4.9867104 7.0116648,4.9267932 7.0587048,4.9263816 L7.4219124,4.923618 L7.5368076,4.57905 C7.551684,4.5344208 7.6147176,4.5344208 7.629594,4.57905 Z" id="Path"></path>
                            <path d="M7.629594,6.3815052 L7.7444892,6.7260732 L8.1076968,6.7288368 C8.1547368,6.7292484 8.1741996,6.7891656 8.1363912,6.8171544 L7.844214,7.0329504 L7.9538172,7.3792236 C7.9680468,7.4240292 7.9169496,7.4611908 7.8786708,7.43379 L7.5832008,7.2225804 L7.2877308,7.43379 C7.249452,7.4611908 7.1984724,7.4240292 7.2125844,7.3792236 L7.3221876,7.0329504 L7.0300104,6.8171544 C6.992202,6.7891656 7.0116648,6.7292484 7.0587048,6.7288368 L7.4219124,6.7260732 L7.5368076,6.3815052 C7.551684,6.3369348 7.6147176,6.3369348 7.629594,6.3815052 Z" id="Path"></path>
                            <path d="M9.0286812,0.0903756 L9.1435764,0.4349436 L9.506784,0.4377072 C9.553824,0.4381188 9.5732868,0.4980948 9.5354784,0.5260248 L9.2433012,0.741762 L9.3529044,1.0880352 C9.367134,1.1328408 9.3160368,1.1700024 9.277758,1.1426016 L8.982288,0.931392 L8.686818,1.1426016 C8.6485392,1.1700024 8.5975596,1.1328408 8.6116716,1.0880352 L8.7212748,0.741762 L8.4290976,0.5260248 C8.3912892,0.498036 8.410752,0.43806 8.457792,0.4377072 L8.8209996,0.4349436 L8.9358948,0.0903756 C8.9506536,0.0457464 9.0138048,0.0457464 9.0286812,0.0903756 Z" id="Path"></path>
                            <path d="M9.0286812,1.8928308 L9.1435764,2.2373988 L9.506784,2.2401624 C9.553824,2.240574 9.5732868,2.3004912 9.5354784,2.32848 L9.2433012,2.544276 L9.3529044,2.8905492 C9.367134,2.9353548 9.3160368,2.9725164 9.277758,2.9451156 L8.982288,2.733906 L8.686818,2.9451156 C8.6485392,2.9724576 8.5975596,2.9353548 8.6116716,2.8905492 L8.7212748,2.544276 L8.4290976,2.32848 C8.3912892,2.3004912 8.410752,2.240574 8.457792,2.2401624 L8.8209996,2.2373988 L8.9358948,1.8928308 C8.9506536,1.8482604 9.0138048,1.8482604 9.0286812,1.8928308 Z" id="Path"></path>
                            <path d="M9.0286812,3.6953448 L9.1435764,4.0399128 L9.506784,4.0426764 C9.553824,4.043088 9.5732868,4.1030052 9.5354784,4.130994 L9.2433012,4.34679 L9.3529044,4.6930632 C9.367134,4.7378688 9.3160368,4.7750304 9.277758,4.7476296 L8.982288,4.53642 L8.686818,4.7476296 C8.6485392,4.7749716 8.5975596,4.7379276 8.6116716,4.6930632 L8.7212748,4.34679 L8.4290976,4.130994 C8.3912892,4.1030052 8.410752,4.043088 8.457792,4.0426764 L8.8209996,4.0399128 L8.9358948,3.6953448 C8.9506536,3.6507156 9.0138048,3.6507156 9.0286812,3.6953448 Z" id="Path"></path>
                            <path d="M9.0286812,5.4978 L9.1435764,5.842368 L9.506784,5.8451316 C9.553824,5.8455432 9.5732868,5.9055192 9.5354784,5.9334492 L9.2433012,6.1492452 L9.3529044,6.4955184 C9.367134,6.540324 9.3160368,6.5774856 9.277758,6.5500848 L8.982288,6.3388752 L8.686818,6.5500848 C8.6485392,6.5774268 8.5975596,6.540324 8.6116716,6.4955184 L8.7212748,6.1492452 L8.4290976,5.9334492 C8.3912892,5.905578 8.410752,5.8455432 8.457792,5.8451316 L8.8209996,5.842368 L8.9358948,5.4978 C8.9506536,5.4531708 9.0138048,5.4531708 9.0286812,5.4978 Z" id="Path"></path>
                            <path d="M9.0286812,7.3002552 L9.1435764,7.6448232 L9.506784,7.6475868 C9.553824,7.6479984 9.5732868,7.7079156 9.5354784,7.7359044 L9.2433012,7.9517004 L9.3529044,8.2979736 C9.367134,8.3427792 9.3160368,8.3799408 9.277758,8.35254 L8.982288,8.1413304 L8.686818,8.35254 C8.6485392,8.379882 8.5975596,8.3427792 8.6116716,8.2979736 L8.7212748,7.9517004 L8.4290976,7.7359044 C8.3912892,7.7079156 8.410752,7.6479984 8.457792,7.6475868 L8.8209996,7.6448232 L8.9358948,7.3002552 C8.9506536,7.2556848 9.0138048,7.2556848 9.0286812,7.3002552 Z" id="Path"></path>
                            <path d="M10.4277096,0.9740808 L10.5426048,1.3186488 L10.9058124,1.3214124 C10.9528524,1.321824 10.9723152,1.3818 10.9345068,1.40973 L10.6423296,1.625526 L10.7519328,1.9717992 C10.7661624,2.0166048 10.7150652,2.0537664 10.6767864,2.0263656 L10.3813164,1.815156 L10.0858464,2.0263656 C10.0475676,2.0537076 9.996588,2.0166048 10.0107,1.9717992 L10.1203032,1.625526 L9.828126,1.40973 C9.7903176,1.3817412 9.8097804,1.321824 9.8568204,1.3214124 L10.220028,1.3186488 L10.3349232,0.9740808 C10.3497408,0.9295104 10.4128332,0.9295104 10.4277096,0.9740808 Z" id="Path"></path>
                            <path d="M10.4277096,2.7765948 L10.5426048,3.1211628 L10.9058124,3.1239264 C10.9528524,3.124338 10.9723152,3.184314 10.9345068,3.212244 L10.6423296,3.42804 L10.7519328,3.7743132 C10.7661624,3.8191188 10.7150652,3.8562804 10.6767864,3.8288796 L10.3813164,3.61767 L10.0858464,3.8288796 C10.0475676,3.8562216 9.996588,3.8191776 10.0107,3.7743132 L10.1203032,3.42804 L9.828126,3.212244 C9.7903176,3.1843728 9.8097804,3.124338 9.8568204,3.1239264 L10.220028,3.1211628 L10.3349232,2.7765948 C10.3497408,2.7319656 10.4128332,2.7319656 10.4277096,2.7765948 Z" id="Path"></path>
                            <path d="M10.4277096,4.57905 L10.5426048,4.923618 L10.9058124,4.9263816 C10.9528524,4.9267932 10.9723152,4.9867104 10.9345068,5.0146992 L10.6423296,5.2304952 L10.7519328,5.5767684 C10.7661624,5.621574 10.7150652,5.6587356 10.6767864,5.6313348 L10.3813164,5.4201252 L10.0858464,5.6313348 C10.0475676,5.6586768 9.996588,5.621574 10.0107,5.5767684 L10.1203032,5.2304952 L9.828126,5.0146992 C9.7903176,4.9867104 9.8097804,4.9267932 9.8568204,4.9263816 L10.220028,4.923618 L10.3349232,4.57905 C10.3497408,4.5344208 10.4128332,4.5344208 10.4277096,4.57905 Z" id="Path"></path>
                            <path d="M10.4277096,6.3815052 L10.5426048,6.7260732 L10.9058124,6.7288368 C10.9528524,6.7292484 10.9723152,6.7891656 10.9345068,6.8171544 L10.6423296,7.0329504 L10.7519328,7.3792236 C10.7661624,7.4240292 10.7150652,7.4611908 10.6767864,7.43379 L10.3813164,7.2225804 L10.0858464,7.43379 C10.0475676,7.4611908 9.996588,7.4240292 10.0107,7.3792236 L10.1203032,7.0329504 L9.828126,6.8171544 C9.7903176,6.7891656 9.8097804,6.7292484 9.8568204,6.7288368 L10.220028,6.7260732 L10.3349232,6.3815052 C10.3497408,6.3369348 10.4128332,6.3369348 10.4277096,6.3815052 Z" id="Path"></path>
                            <path d="M11.8267968,0.0903756 L11.941692,0.4349436 L12.3048996,0.4377072 C12.3519396,0.4381188 12.3714024,0.4980948 12.333594,0.5260248 L12.0414168,0.741762 L12.15102,1.0880352 C12.1652496,1.1328408 12.1141524,1.1700024 12.0758736,1.1426016 L11.7804036,0.931392 L11.4849336,1.1426016 C11.4466548,1.1700024 11.3956752,1.1328408 11.4097872,1.0880352 L11.5193904,0.741762 L11.2272132,0.5260248 C11.1894048,0.498036 11.2088676,0.43806 11.2559076,0.4377072 L11.6191152,0.4349436 L11.7340104,0.0903756 C11.748828,0.0457464 11.8118616,0.0457464 11.8267968,0.0903756 Z" id="Path"></path>
                            <path d="M11.8267968,1.8928308 L11.941692,2.2373988 L12.3048996,2.2401624 C12.3519396,2.240574 12.3714024,2.3004912 12.333594,2.32848 L12.0414168,2.544276 L12.15102,2.8905492 C12.1652496,2.9353548 12.1141524,2.9725164 12.0758736,2.9451156 L11.7804036,2.733906 L11.4849336,2.9451156 C11.4466548,2.9724576 11.3956752,2.9353548 11.4097872,2.8905492 L11.5193904,2.544276 L11.2272132,2.32848 C11.1894048,2.3004912 11.2088676,2.240574 11.2559076,2.2401624 L11.6191152,2.2373988 L11.7340104,1.8928308 C11.748828,1.8482604 11.8118616,1.8482604 11.8267968,1.8928308 Z" id="Path"></path>
                            <path d="M11.8267968,3.6953448 L11.941692,4.0399128 L12.3048996,4.0426764 C12.3519396,4.043088 12.3714024,4.1030052 12.333594,4.130994 L12.0414168,4.34679 L12.15102,4.6930632 C12.1652496,4.7378688 12.1141524,4.7750304 12.0758736,4.7476296 L11.7804036,4.53642 L11.4849336,4.7476296 C11.4466548,4.7749716 11.3956752,4.7379276 11.4097872,4.6930632 L11.5193904,4.34679 L11.2272132,4.130994 C11.1894048,4.1030052 11.2088676,4.043088 11.2559076,4.0426764 L11.6191152,4.0399128 L11.7340104,3.6953448 C11.748828,3.6507156 11.8118616,3.6507156 11.8267968,3.6953448 Z" id="Path"></path>
                            <path d="M11.8267968,5.4978 L11.941692,5.842368 L12.3048996,5.8451316 C12.3519396,5.8455432 12.3714024,5.9055192 12.333594,5.9334492 L12.0414168,6.1492452 L12.15102,6.4955184 C12.1652496,6.540324 12.1141524,6.5774856 12.0758736,6.5500848 L11.7804036,6.3388752 L11.4849336,6.5500848 C11.4466548,6.5774268 11.3956752,6.540324 11.4097872,6.4955184 L11.5193904,6.1492452 L11.2272132,5.9334492 C11.1894048,5.905578 11.2088676,5.8455432 11.2559076,5.8451316 L11.6191152,5.842368 L11.7340104,5.4978 C11.748828,5.4531708 11.8118616,5.4531708 11.8267968,5.4978 Z" id="Path"></path>
                            <path d="M11.8267968,7.3002552 L11.941692,7.6448232 L12.3048996,7.6475868 C12.3519396,7.6479984 12.3714024,7.7079156 12.333594,7.7359044 L12.0414168,7.9517004 L12.15102,8.2979736 C12.1652496,8.3427792 12.1141524,8.3799408 12.0758736,8.35254 L11.7804036,8.1413304 L11.4849336,8.35254 C11.4466548,8.379882 11.3956752,8.3427792 11.4097872,8.2979736 L11.5193904,7.9517004 L11.2272132,7.7359044 C11.1894048,7.7079156 11.2088676,7.6479984 11.2559076,7.6475868 L11.6191152,7.6448232 L11.7340104,7.3002552 C11.748828,7.2556848 11.8118616,7.2556848 11.8267968,7.3002552 Z" id="Path"></path>
                        </g>
                    </g>
                </g>
            </g>
        </g>
    </g>
</svg>