<?xml version="1.0" encoding="UTF-8"?>
<svg width="18px" height="16px" viewBox="0 0 18 16" version="1.1" xmlns="http://www.w3.org/2000/svg" xmlns:xlink="http://www.w3.org/1999/xlink">
    <!-- Generator: sketchtool 61.2 (101010) - https://sketch.com -->
    <title>1A9E79ED-DC5B-4B2F-9E9D-7746F2C28208</title>
    <desc>Created with sketchtool.</desc>
    <g id="Hotels" stroke="none" stroke-width="1" fill="none" fill-rule="evenodd">
        <g id="Hotels---Search-Results" transform="translate(-982.000000, -509.000000)" fill="#4CB4A0">
            <g id="Group-19" transform="translate(0.000000, 482.000000)">
                <g id="Group-30" transform="translate(490.000000, 20.000000)">
                    <g id="Group-26" transform="translate(287.000000, 0.000000)">
                        <g id="Group-29" transform="translate(194.000000, 0.000000)">
                            <g id="Group-20-Copy" transform="translate(10.000000, 2.000000)">
                                <g id="ico-/-24-/-ui-/-edit-copy-2" transform="translate(1.000000, 5.000000)">
                                    <path d="M17.1166667,4.8 L13.6583333,1.04166667 C13.3437084,0.697757926 12.8994453,0.501315079 12.4333333,0.5 L5.56666667,0.5 C5.1005547,0.501315079 4.65629164,0.697757926 4.34166667,1.04166667 L0.883333333,4.8 C0.742477617,4.95495648 0.665124729,5.15726403 0.66664405,5.36666667 L0.66664405,5.61666667 C0.666286239,5.8113768 0.734099039,6.00007328 0.858333333,6.15 L8.35833333,15.2 C8.51696374,15.3904501 8.7521398,15.5004025 9,15.5 L9,15.5 C9.2478602,15.5004025 9.48303626,15.3904501 9.64166667,15.2 L17.1416667,6.15 C17.265901,6.00007328 17.3337138,5.8113768 17.3333559,5.61666667 L17.3333559,5.36666667 C17.3348753,5.15726403 17.2575224,4.95495648 17.1166667,4.8 Z M8.31666667,12.5583333 L2.775,5.89166667 C2.66684424,5.84794412 2.61461079,5.72482243 2.65833333,5.61666667 C2.70205588,5.5085109 2.82517757,5.45627746 2.93333333,5.5 L5.89166667,5.5 C6.26738421,5.48161498 6.60883775,5.71721792 6.725,6.075 L8.71666667,12.3666667 C8.76959396,12.4771236 8.72295695,12.6095727 8.6125,12.6625 C8.50204305,12.7154273 8.36959396,12.6687903 8.31666667,12.5583333 L8.31666667,12.5583333 Z M15.0333333,5.5 L9.89166667,5.5 C9.80781363,5.50227572 9.73077481,5.45403895 9.69620055,5.37761165 C9.6616263,5.30118436 9.6762614,5.21147605 9.73333333,5.15 L12.2833333,2.33333333 C12.3228176,2.28989287 12.3787967,2.26512643 12.4375,2.26512643 C12.4962033,2.26512643 12.5521824,2.28989287 12.5916667,2.33333333 L15.1833333,5.15 C15.2393358,5.21037057 15.2545237,5.29806315 15.222086,5.37375115 C15.1896483,5.44943916 15.1156723,5.49891862 15.0333333,5.5 L15.0333333,5.5 Z" id="Icon-color"></path>
                                </g>
                            </g>
                        </g>
                    </g>
                </g>
            </g>
        </g>
    </g>
</svg>