<?xml version="1.0" encoding="UTF-8"?>
<svg width="14px" height="18px" viewBox="0 0 14 18" version="1.1" xmlns="http://www.w3.org/2000/svg" xmlns:xlink="http://www.w3.org/1999/xlink">
    <!-- Generator: sketchtool 61.2 (101010) - https://sketch.com -->
    <title>37E5903C-0F1C-447A-A60F-E6F5B4DD9110</title>
    <desc>Created with sketchtool.</desc>
    <g id="Hotels" stroke="none" stroke-width="1" fill="none" fill-rule="evenodd">
        <g id="Hotels---Search-Results" transform="translate(-103.000000, -348.000000)" fill="#11344C" fill-rule="nonzero">
            <g id="Group-24" transform="translate(0.000000, 301.000000)">
                <g id="Field-Copy-2" transform="translate(99.000000, 31.000000)">
                    <g id="ico-/-24-/-ui-/-edit" transform="translate(4.000000, 16.000000)">
                        <path d="M8.66666667,7.33333333 C8.66666667,8.25380792 7.92047458,9 7,9 C6.07952542,9 5.33333333,8.25380792 5.33333333,7.33333333 C5.33333333,6.41285875 6.07952542,5.66666667 7,5.66666667 C7.92047458,5.66666667 8.66666667,6.41285875 8.66666667,7.33333333 Z M7,2.33333333 C4.23857625,2.33333333 2,4.57190958 2,7.33333333 C2,9.66666667 2.98333333,10.45 4.35,11.5 C5.49901127,12.2764638 6.41507173,13.3509624 7,14.6083333 C7.58775064,13.3527766 8.50322657,12.2789636 9.65,11.5 C11.0166667,10.45 12,9.66666667 12,7.33333333 C12,4.57190958 9.76142375,2.33333333 7,2.33333333 L7,2.33333333 Z M7,0.666666667 C10.6818983,0.666666667 13.6666667,3.651435 13.6666667,7.33333333 C13.6666667,12.5166667 9.45833333,12.475 8.45,15.4833333 L8.025,16.7666667 C7.9058384,17.1211424 7.56512697,17.3528262 7.19166667,17.3333333 L6.725,17.3333333 C6.3515397,17.3528262 6.01082827,17.1211424 5.89166667,16.7666667 L5.46666667,15.4833333 C4.54166667,12.475 0.333333333,12.5166667 0.333333333,7.33333333 C0.333333333,3.651435 3.31810167,0.666666667 7,0.666666667 Z" id="Icon-color"></path>
                    </g>
                </g>
            </g>
        </g>
    </g>
</svg>