<?xml version="1.0" encoding="UTF-8"?>
<svg width="22px" height="22px" viewBox="0 0 22 22" version="1.1" xmlns="http://www.w3.org/2000/svg" xmlns:xlink="http://www.w3.org/1999/xlink">
    <!-- Generator: sketchtool 61.2 (101010) - https://sketch.com -->
    <title>53E4F75B-A661-4C35-8B6B-63326ED6FC6D</title>
    <desc>Created with sketchtool.</desc>
    <g id="Hotels" stroke="none" stroke-width="1" fill="none" fill-rule="evenodd">
        <g id="Hotels---Search-Results" transform="translate(-1161.000000, -19.000000)" fill-rule="nonzero">
            <g id="Group-5">
                <g id="Group-11" transform="translate(1161.000000, 19.000000)">
                    <g id="euro">
                        <circle id="Oval" fill="#0856D9" cx="10.8" cy="10.8" r="10.8"></circle>
                        <path d="M12.9229907,14.33295 C12.4323323,14.67585 11.8930026,14.85 11.3194716,14.85 C10.1079531,14.85 9.05823345,14.0292 8.48864874,12.825 L10.6617525,12.825 C11.0248135,12.825 11.3194716,12.5226 11.3194716,12.15 C11.3194716,11.7774 11.0248135,11.475 10.6617525,11.475 L8.08612467,11.475 C8.05586959,11.25495 8.03087627,11.03085 8.03087627,10.8 C8.03087627,10.56915 8.05586959,10.34505 8.08612467,10.125 L11.3194716,10.125 C11.6825325,10.125 11.9771907,9.8226 11.9771907,9.45 C11.9771907,9.0774 11.6825325,8.775 11.3194716,8.775 L8.48864874,8.775 C9.05823345,7.5708 10.1079531,6.75 11.3194716,6.75 C11.8930026,6.75 12.4323323,6.92415 12.9229907,7.26705 C13.2215951,7.4763 13.6320118,7.4007 13.8359047,7.0902 C14.0397977,6.7824 13.9635022,6.36255 13.6622669,6.15195 C12.9598229,5.66055 12.1495131,5.4 11.3194716,5.4 C9.39235473,5.4 7.74279531,6.79995 7.05745205,8.775 L6.05771907,8.775 C5.69465814,8.775 5.4,9.0774 5.4,9.45 C5.4,9.8226 5.69465814,10.125 6.05771907,10.125 L6.77331741,10.125 C6.74963952,10.3491 6.71543813,10.56915 6.71543813,10.8 C6.71543813,11.03085 6.74963952,11.2509 6.77331741,11.475 L6.05771907,11.475 C5.69465814,11.475 5.4,11.7774 5.4,12.15 C5.4,12.5226 5.69465814,12.825 6.05771907,12.825 L7.05745205,12.825 C7.74279531,14.80005 9.39235473,16.2 11.3194716,16.2 C12.1495131,16.2 12.9598229,15.93945 13.6622669,15.44805 C13.9635022,15.23745 14.0397977,14.8176 13.8359047,14.5098 C13.6320118,14.202 13.2202797,14.12505 12.9229907,14.33295 Z" id="Path" fill="#FAFAFA"></path>
                    </g>
                </g>
            </g>
        </g>
    </g>
</svg>