<?xml version="1.0" encoding="UTF-8"?>
<svg width="33px" height="32px" viewBox="0 0 33 32" version="1.1" xmlns="http://www.w3.org/2000/svg" xmlns:xlink="http://www.w3.org/1999/xlink">
    <!-- Generator: sketchtool 61.2 (101010) - https://sketch.com -->
    <title>AA8C0AE0-0C78-4ACB-BFC0-0D9A3057479D</title>
    <desc>Created with sketchtool.</desc>
    <g id="Hotels" stroke="none" stroke-width="1" fill="none" fill-rule="evenodd">
        <g id="Hotels---Search-Results" transform="translate(-1277.000000, -2372.000000)">
            <g id="Group-19" transform="translate(0.000000, 482.000000)">
                <g id="Footer/-Type-9" transform="translate(0.000000, 1494.000000)">
                    <g id="Stacked-Group">
                        <g transform="translate(1177.548387, 396.000000)">
                            <g id="Group-2">
                                <g id="Group-5" transform="translate(28.387097, 0.000000)">
                                    <g id="Dribbble-Copy" transform="translate(72.000000, 0.000000)">
                                        <path d="M0,16 C0,7.16344357 7.16344357,0 16,0 C24.8365564,0 32,7.16344357 32,16 C32,24.8365564 24.8365564,32 16,32 C7.16344357,32 0,24.8365564 0,16 Z" id="back" fill="#FFFFFF" opacity="0.100000001"></path>
                                        <path d="M20.5761435,15.9810348 L18.0207329,15.9810348 L18.0207329,25.8461538 L14.1490687,25.8461538 L14.1490687,15.9810348 L12.3076923,15.9810348 L12.3076923,12.5140395 L14.1490687,12.5140395 L14.1490687,10.2704996 C14.1490687,8.66612655 14.8722933,6.15384615 18.0551964,6.15384615 L20.9230769,6.1664896 L20.9230769,9.53179935 L18.8422425,9.53179935 C18.5009254,9.53179935 18.0209881,9.71149774 18.0209881,10.47683 L18.0209881,12.5172676 L20.9143972,12.5172676 L20.5761435,15.9810348 Z" id="Path" fill="#FFC85A"></path>
                                    </g>
                                </g>
                            </g>
                        </g>
                    </g>
                </g>
            </g>
        </g>
    </g>
</svg>