<?xml version="1.0" encoding="UTF-8"?>
<svg width="18px" height="13px" viewBox="0 0 18 13" version="1.1" xmlns="http://www.w3.org/2000/svg" xmlns:xlink="http://www.w3.org/1999/xlink">
    <!-- Generator: sketchtool 61.2 (101010) - https://sketch.com -->
    <title>3500C307-8167-4C0E-9C53-527180957569</title>
    <desc>Created with sketchtool.</desc>
    <g id="Hotels" stroke="none" stroke-width="1" fill="none" fill-rule="evenodd">
        <g id="Hotels---Search-Results" transform="translate(-393.000000, -351.000000)" fill="#11344C" fill-rule="nonzero">
            <g id="Group-24" transform="translate(0.000000, 301.000000)">
                <g id="Field-Copy-3" transform="translate(391.000000, 31.000000)">
                    <g id="ico-/-24-/-ui-/-edit" transform="translate(2.000000, 19.000000)">
                        <path d="M16.65966,10.76238 C17.0875933,10.76238 17.43456,11.1093467 17.43456,11.5371867 C17.43456,11.9650267 17.0875933,12.31204 16.65966,12.31204 L16.65966,12.31204 L1.44152,12.31204 C1.01358667,12.31204 0.666666667,11.96512 0.666666667,11.5371867 C0.666666667,11.1092533 1.01358667,10.76238 1.44152,10.76238 L1.44152,10.76238 Z M2.06629893,0.211942293 L2.13848667,0.2173 L2.72261333,0.31348 C2.85337333,0.334993333 2.96537333,0.41876 3.02296,0.53804 L3.02296,0.53804 L4.54961333,3.70101333 L13.4884733,5.17222667 C15.1226467,5.44126 15.3773067,5.59521333 15.71956,5.86620667 C15.8168133,5.9433 15.9087,6.0161 16.1016667,6.11279333 C16.67954,6.40236 17.07126,6.68558 17.29876,6.9786 C17.5230867,7.26737333 17.5404,7.5092 17.51534,7.66114667 C17.4830933,7.85724 17.2429933,8.47655333 15.5081133,8.21792667 L15.5081133,8.21792667 L10.9695933,7.47863333 L6.25742667,8.2624 C6.22182,8.26832667 6.18551333,8.26832667 6.14990667,8.26249333 L6.14990667,8.26249333 L4.90997333,8.05842 C4.76395333,8.03438667 4.65190667,7.91599333 4.63604,7.76894667 C4.62008,7.62199333 4.70417333,7.48236667 4.84156,7.42762667 L4.84156,7.42762667 L6.7331,6.67438 L1.04676667,4.78242 C0.845073333,4.71531333 0.72906,4.50428667 0.780486667,4.29806667 C0.83168,4.09236 1.03225333,3.96062 1.24122667,3.99501333 L1.24122667,3.99501333 L1.24290667,3.99524667 L1.78377333,4.08648 L1.66594,0.63254 C1.66174,0.510786667 1.71242,0.39356 1.80398,0.313106667 C1.89544667,0.232653333 2.01822667,0.197513333 2.13848667,0.2173 Z" id="Combined-Shape"></path>
                    </g>
                </g>
            </g>
        </g>
    </g>
</svg>