<?xml version="1.0" encoding="UTF-8"?>
<svg width="18px" height="18px" viewBox="0 0 18 18" version="1.1" xmlns="http://www.w3.org/2000/svg" xmlns:xlink="http://www.w3.org/1999/xlink">
    <!-- Generator: sketchtool 61.2 (101010) - https://sketch.com -->
    <title>90C335D0-3E53-47C3-A1D6-9401A5D1C343</title>
    <desc>Created with sketchtool.</desc>
    <g id="Hotels" stroke="none" stroke-width="1" fill="none" fill-rule="evenodd">
        <g id="Hotels---Search-Results" transform="translate(-761.000000, -695.000000)" fill="#364BA0">
            <g id="Group-19" transform="translate(0.000000, 482.000000)">
                <g id="Group-24-Copy-2" transform="translate(490.000000, 68.000000)">
                    <g id="Group-15">
                        <g id="Group-20-Copy-2" transform="translate(270.000000, 144.000000)">
                            <g id="ico-/-24-/-ui-/-edit" transform="translate(1.000000, 1.000000)">
                                <path d="M17.3333333,11.2900676 C16.1560108,15.1763604 12.3942624,17.6899105 8.3498001,17.2927447 C4.3053378,16.8955789 1.10536126,13.6983882 0.707849428,9.6574468 C0.310337595,5.61650544 2.82607781,1.85803187 6.71575679,0.681734251 L6.71575679,0.681734251 C6.86675579,0.641691726 7.02773831,0.682690762 7.1411271,0.790067584 L7.21619244,0.865067584 C7.30549077,0.958848793 7.35093577,1.08598402 7.34130136,1.21506758 C7.01978276,3.80500765 7.90928497,6.3986658 9.75303002,8.2473151 C11.5967751,10.0959644 14.1895394,10.9938354 16.7828541,10.6817343 C16.9120502,10.6721082 17.0392961,10.7175137 17.1331591,10.8067343 L17.2082244,10.8817343 C17.3156948,10.9950243 17.3567296,11.1558667 17.3166521,11.3067343 L17.3333333,11.2900676 Z" id="Icon-color"></path>
                            </g>
                        </g>
                    </g>
                </g>
            </g>
        </g>
    </g>
</svg>