<?xml version="1.0" encoding="UTF-8"?>
<svg width="18px" height="12px" viewBox="0 0 18 12" version="1.1" xmlns="http://www.w3.org/2000/svg" xmlns:xlink="http://www.w3.org/1999/xlink">
    <!-- Generator: sketchtool 61.2 (101010) - https://sketch.com -->
    <title>4B65158A-5310-45D8-9957-44523206138F</title>
    <desc>Created with sketchtool.</desc>
    <g id="Hotels" stroke="none" stroke-width="1" fill="none" fill-rule="evenodd">
        <g id="Hotels---Search-Results" transform="translate(-936.000000, -351.000000)" fill="#11344C" fill-rule="nonzero">
            <g id="Group-24" transform="translate(0.000000, 301.000000)">
                <g id="Field-Copy-6" transform="translate(934.000000, 31.000000)">
                    <g id="ico-/-24-/-ui-/-edit" transform="translate(2.000000, 19.000000)">
                        <path d="M10.6696921,3.91666667 C10.6696921,2.76607344 11.6027145,1.83333333 12.7536559,1.83333333 C13.9045974,1.83333333 14.8376197,2.76607344 14.8376197,3.91666667 C14.8376197,5.0672599 13.9045974,6 12.7536559,6 C11.6027145,6 10.6696921,5.0672599 10.6696921,3.91666667 L10.6696921,3.91666667 Z M6.50176454,5.16666667 C7.88289425,5.16666667 9.0025211,4.04737854 9.0025211,2.66666667 C9.0025211,1.28595479 7.88289425,0.166666667 6.50176454,0.166666667 C5.12063483,0.166666667 4.00100798,1.28595479 4.00100798,2.66666667 C4.00100798,4.04737854 5.12063483,5.16666667 6.50176454,5.16666667 Z M11.0448056,8.21666667 C10.6206795,7.36736866 9.75199902,6.83146781 8.80246058,6.83332848 L4.20106851,6.83332848 C3.25153007,6.83146781 2.38284961,7.36736866 1.95872346,8.21666667 L0.758360311,10.625 C0.628346607,10.8829319 0.641203817,11.1897732 0.792339818,11.4359315 C0.943475819,11.6820898 1.21133634,11.8324593 1.50025142,11.8333285 L11.5032777,11.8333285 C11.7921927,11.8324593 12.0600533,11.6820898 12.2111893,11.4359315 C12.3623253,11.1897732 12.3751825,10.8829319 12.2451688,10.625 L11.0448056,8.21666667 Z M17.2466819,10.625 L16.4547757,9.04166667 C16.0296683,8.19829282 15.1654496,7.66637886 14.2207665,7.66666655 L12.6286181,7.66666655 L13.7372869,9.88333333 C14.0418593,10.48946 14.0869903,11.1932914 13.8623247,11.8333333 L16.5047908,11.8333333 C16.7937059,11.8324593 17.0615664,11.6820898 17.2127024,11.4359315 C17.3638384,11.1897732 17.3766956,10.8829319 17.2466819,10.625 Z" id="Icon-color"></path>
                    </g>
                </g>
            </g>
        </g>
    </g>
</svg>