<?xml version="1.0" encoding="UTF-8"?>
<svg width="16px" height="14px" viewBox="0 0 16 14" version="1.1" xmlns="http://www.w3.org/2000/svg" xmlns:xlink="http://www.w3.org/1999/xlink">
    <!-- Generator: sketchtool 61.2 (101010) - https://sketch.com -->
    <title>0463A588-EBA3-476E-A2B8-BBDEB05F7F14</title>
    <desc>Created with sketchtool.</desc>
    <g id="Hotels" stroke="none" stroke-width="1" fill="none" fill-rule="evenodd">
        <g id="Hotels---Search-Results" transform="translate(-1162.000000, -511.000000)" fill="#364BA0">
            <g id="Group-19" transform="translate(0.000000, 482.000000)">
                <g id="Group-30" transform="translate(490.000000, 20.000000)">
                    <g id="Group-26" transform="translate(287.000000, 0.000000)">
                        <g id="Field-Copy-5" transform="translate(385.000000, 2.000000)">
                            <g id="ico-/-24-/-ui-/-edit" transform="translate(0.000000, 7.000000)">
                                <path d="M15.5,5.58333333 L15.5,6.41666667 C15.5,6.64678531 15.313452,6.83333333 15.0833333,6.83333333 L4.25,6.83333333 C4.01988135,6.83333333 3.83333333,6.64678531 3.83333333,6.41666667 L3.83333333,5.58333333 C3.83333333,5.35321469 4.01988135,5.16666667 4.25,5.16666667 L15.0833333,5.16666667 C15.313452,5.16666667 15.5,5.35321469 15.5,5.58333333 Z M15.0833333,10.1666667 L11.75,10.1666667 C11.5198814,10.1666667 11.3333333,10.3532147 11.3333333,10.5833333 L11.3333333,11.4166667 C11.3333333,11.6467853 11.5198814,11.8333333 11.75,11.8333333 L15.0833333,11.8333333 C15.313452,11.8333333 15.5,11.6467853 15.5,11.4166667 L15.5,10.5833333 C15.5,10.3532147 15.313452,10.1666667 15.0833333,10.1666667 Z M15.0833333,0.166666667 L6.33333333,0.166666667 C3.11167233,0.166666667 0.500000087,2.77833899 0.500000087,6 C0.500000087,9.22166101 3.11167233,11.8333333 6.33333333,11.8333333 L6.33333333,13.5 C6.33567503,13.666698 6.43715596,13.8159535 6.59131314,13.87943 C6.74547033,13.9429065 6.92262487,13.9083832 7.04166667,13.7916667 L9.54166667,11.2916667 C9.70148608,11.1268219 9.70148608,10.8648447 9.54166667,10.7 L7.04166667,8.2 C6.92154006,8.08224668 6.74239081,8.04827576 6.58749558,8.11387844 C6.43260034,8.17948113 6.33234523,8.33178802 6.33333333,8.5 L6.33333333,10.1666667 C4.03214688,10.1666667 2.16666667,8.30118646 2.16666667,6 C2.16666667,3.69881354 4.03214688,1.83333333 6.33333333,1.83333333 L15.0833333,1.83333333 C15.313452,1.83333333 15.5000001,1.64678531 15.5000001,1.41666667 L15.5000001,0.583333333 C15.5000001,0.472826463 15.4561013,0.366845666 15.3779612,0.288705508 C15.299821,0.21056535 15.1938402,0.166666667 15.0833333,0.166666667 Z" id="Icon-color"></path>
                            </g>
                        </g>
                    </g>
                </g>
            </g>
        </g>
    </g>
</svg>