<?xml version="1.0" encoding="UTF-8"?>
<svg width="33px" height="32px" viewBox="0 0 33 32" version="1.1" xmlns="http://www.w3.org/2000/svg" xmlns:xlink="http://www.w3.org/1999/xlink">
    <!-- Generator: sketchtool 61.2 (101010) - https://sketch.com -->
    <title>1491F70E-49D3-4D05-9FE6-66F679FCF553</title>
    <desc>Created with sketchtool.</desc>
    <g id="Hotels" stroke="none" stroke-width="1" fill="none" fill-rule="evenodd">
        <g id="Hotels---Search-Results" transform="translate(-1205.000000, -2372.000000)">
            <g id="Group-19" transform="translate(0.000000, 482.000000)">
                <g id="Footer/-Type-9" transform="translate(0.000000, 1494.000000)">
                    <g id="Stacked-Group">
                        <g transform="translate(1177.548387, 396.000000)">
                            <g id="Group-2">
                                <g id="Group-5" transform="translate(28.387097, 0.000000)">
                                    <g id="Twitter" transform="translate(0.000000, 1.000000)">
                                        <path d="M0,15 C0,6.16344357 7.16344357,-1 16,-1 C24.8365564,-1 32,6.16344357 32,15 C32,23.8365564 24.8365564,31 16,31 C7.16344357,31 0,23.8365564 0,15 Z" id="back" fill="#FFFFFF" fill-rule="nonzero" opacity="0.100000001"></path>
                                        <path d="M24.6153846,10.4488997 C23.9816019,10.720612 23.2998373,10.9043874 22.5848545,10.9864619 C23.3148646,10.5636 23.8750927,9.8945148 24.1395203,9.09594566 C23.4564376,9.48771099 22.6995365,9.7719129 21.8946536,9.92510156 C21.2497982,9.26111413 20.3310242,8.84615385 19.31365,8.84615385 C17.3616837,8.84615385 15.7785451,10.3767659 15.7785451,12.2639686 C15.7785451,12.5318576 15.8099179,12.7926096 15.8705544,13.0429112 C12.9325867,12.900428 10.3275922,11.5398272 8.58389886,9.47139806 C8.27966207,9.97607948 8.10513456,10.5636 8.10513456,11.1898638 C8.10513456,12.3753554 8.72968997,13.4219321 9.67772764,14.0346867 C9.09851775,14.0170993 8.55305336,13.8634009 8.07666179,13.6067271 C8.07639816,13.6212558 8.07639816,13.6357845 8.07639816,13.6500583 C8.07639816,15.3060761 9.29545438,16.6873229 10.9123384,17.001092 C10.6160108,17.079598 10.303074,17.121145 9.98117351,17.121145 C9.75286411,17.121145 9.53167289,17.0999891 9.31601805,17.0602264 C9.76578231,18.4177684 11.0710477,19.4059754 12.6183317,19.4337584 C11.4082391,20.3505963 9.8841552,20.8968247 8.227462,20.8968247 C7.94273434,20.8968247 7.66064304,20.8807667 7.38461538,20.8489055 C8.94824481,21.8190153 10.8068837,22.3846154 12.803141,22.3846154 C19.3054773,22.3846154 22.8614095,17.1767109 22.8614095,12.6598122 C22.8614095,12.5117213 22.8579822,12.3641402 22.8511276,12.2178336 C23.5423831,11.7360922 24.1416294,11.1342979 24.6153846,10.4488997 L24.6153846,10.4488997 Z" id="Path" fill="#FFC85A"></path>
                                    </g>
                                </g>
                            </g>
                        </g>
                    </g>
                </g>
            </g>
        </g>
    </g>
</svg>